<svg width="640" height="640" viewBox="0 0 640 640" fill="none" xmlns="http://www.w3.org/2000/svg" role="img" aria-labelledby="title desc">
  <title id="title">APIX AI</title>
  <desc id="desc">Neon APIX logo with cyan, pink and green glow.</desc>
  <defs>
    <linearGradient id="apixGradient" x1="80" y1="264" x2="560" y2="264" gradientUnits="userSpaceOnUse">
      <stop offset="0" stop-color="#38D7FF"/>
      <stop offset="0.38" stop-color="#E044FF"/>
      <stop offset="0.62" stop-color="#FF6C9E"/>
      <stop offset="1" stop-color="#62F6C5"/>
    </linearGradient>
    <linearGradient id="ringGradient" x1="118" y1="116" x2="522" y2="522" gradientUnits="userSpaceOnUse">
      <stop offset="0" stop-color="#38D7FF"/>
      <stop offset="0.45" stop-color="#E044FF"/>
      <stop offset="1" stop-color="#62F6C5"/>
    </linearGradient>
    <filter id="glow" x="-30%" y="-30%" width="160%" height="160%" color-interpolation-filters="sRGB">
      <feGaussianBlur stdDeviation="9" result="blur"/>
      <feColorMatrix in="blur" type="matrix" values="0 0 0 0 0.30 0 0 0 0 0.80 0 0 0 0 1.00 0 0 0 0.55 0"/>
      <feMerge>
        <feMergeNode/>
        <feMergeNode in="SourceGraphic"/>
      </feMerge>
    </filter>
    <filter id="softPink" x="-50%" y="-50%" width="200%" height="200%" color-interpolation-filters="sRGB">
      <feGaussianBlur stdDeviation="18"/>
    </filter>
  </defs>
  <ellipse cx="320" cy="526" rx="152" ry="24" fill="url(#ringGradient)" opacity="0.42" filter="url(#softPink)"/>
  <path d="M157 141C207 98 281 78 352 90C436 104 506 159 541 233" stroke="url(#ringGradient)" stroke-width="8" stroke-linecap="round" opacity="0.9" filter="url(#glow)"/>
  <path d="M113 401C160 473 245 513 334 500C421 487 492 430 526 350" stroke="url(#ringGradient)" stroke-width="8" stroke-linecap="round" opacity="0.9" filter="url(#glow)"/>
  <path d="M139 453C198 515 293 539 378 509" stroke="#55F1D0" stroke-width="4" stroke-linecap="round" stroke-dasharray="18 14" opacity="0.75"/>
  <path d="M221 102C291 64 395 74 462 132" stroke="#EA4DFF" stroke-width="4" stroke-linecap="round" stroke-dasharray="16 13" opacity="0.7"/>
  <g opacity="0.8">
    <circle cx="490" cy="178" r="4" fill="#55F1D0"/>
    <circle cx="512" cy="196" r="3" fill="#38D7FF"/>
    <circle cx="532" cy="220" r="5" fill="#62F6C5"/>
    <circle cx="544" cy="252" r="3" fill="#E044FF"/>
    <circle cx="111" cy="350" r="4" fill="#38D7FF"/>
    <circle cx="132" cy="382" r="3" fill="#62F6C5"/>
  </g>
  <g filter="url(#glow)">
    <path d="M82 326L145 202H178L241 326H202L189 298H133L120 326H82ZM147 266H175L161 233L147 266Z" fill="url(#apixGradient)"/>
    <path d="M259 326V202H342C369 202 388 221 388 248C388 276 369 295 341 295H296V326H259ZM296 263H337C347 263 353 257 353 248C353 239 347 234 337 234H296V263Z" fill="url(#apixGradient)"/>
    <path d="M416 326V202H453V326H416Z" fill="url(#apixGradient)"/>
    <path d="M475 326L526 262L477 202H522L550 238L578 202H623L574 262L625 326H580L550 287L520 326H475Z" fill="url(#apixGradient)"/>
  </g>
  <text x="320" y="386" text-anchor="middle" fill="#FFFFFF" opacity="0.92" font-family="Arial, Helvetica, sans-serif" font-size="22" font-weight="600" letter-spacing="10">AI IMAGE &amp; VIDEO GENERATION</text>
</svg>
