<svg xmlns="http://www.w3.org/2000/svg" viewBox="0 0 900 1200" role="img" aria-label="Astronaut helmet with galaxy reflection">
  <defs>
    <radialGradient id="space" cx="0.42" cy="0.32" r="0.75"><stop offset="0" stop-color="#3520a5"/><stop offset="0.34" stop-color="#14142d"/><stop offset="1" stop-color="#030306"/></radialGradient>
    <radialGradient id="visor" cx="0.56" cy="0.34" r="0.46"><stop offset="0" stop-color="#27e9ff"/><stop offset="0.28" stop-color="#8a36ff"/><stop offset="0.58" stop-color="#ff48c6" stop-opacity=".76"/><stop offset="1" stop-color="#020308"/></radialGradient>
    <filter id="glow" x="-40%" y="-40%" width="180%" height="180%"><feGaussianBlur stdDeviation="9" result="b"/><feMerge><feMergeNode in="b"/><feMergeNode in="SourceGraphic"/></feMerge></filter>
  </defs>
  <rect width="900" height="1200" fill="url(#space)"/>
  <g fill="#fff" opacity=".66"><circle cx="124" cy="104" r="2"/><circle cx="348" cy="164" r="3"/><circle cx="760" cy="128" r="2"/><circle cx="708" cy="364" r="2"/><circle cx="170" cy="472" r="2"/><circle cx="580" cy="70" r="2"/></g>
  <path d="M140 812 C178 568 296 380 476 370 C658 358 794 540 806 796 C726 716 590 684 470 690 C344 696 232 736 140 812 Z" fill="#0a0a13"/>
  <ellipse cx="500" cy="560" rx="282" ry="314" fill="#161827" stroke="#eef4ff" stroke-opacity=".18" stroke-width="18"/>
  <ellipse cx="516" cy="545" rx="212" ry="230" fill="url(#visor)" stroke="#27e9ff" stroke-opacity=".38" stroke-width="8" filter="url(#glow)"/>
  <path d="M372 405 C454 328 614 360 706 470" stroke="#fff" stroke-opacity=".35" stroke-width="14" stroke-linecap="round"/>
  <path d="M350 570 C462 480 590 520 718 430" stroke="#fff" stroke-opacity=".18" stroke-width="8" fill="none"/>
  <path d="M318 756 C450 810 616 804 742 730" stroke="#ff48c6" stroke-opacity=".44" stroke-width="9" fill="none" filter="url(#glow)"/>
  <path d="M260 858 C328 782 686 786 764 866 L846 1200 H170 Z" fill="#11131d"/>
  <path d="M258 948 C398 900 586 900 760 958" stroke="#27e9ff" stroke-opacity=".28" stroke-width="7" fill="none" filter="url(#glow)"/>
  <path d="M92 1036 C234 958 408 948 596 1026" stroke="#ff48c6" stroke-opacity=".22" stroke-width="9" fill="none"/>
</svg>
